<svg width="100" height="100" viewBox="0 0 100 100" fill="none" xmlns="http://www.w3.org/2000/svg">
<rect width="100" height="100" fill="white"/>
<path d="M14.1798 9.375L20.6251 82.2852L50.0001 90.625L79.2579 82.2852L85.8302 9.375H14.1798ZM72.2853 26.6699L71.8165 31.2793L71.6505 33.1836H37.3341L38.1349 42.3828H70.8595L70.5372 44.7559L68.4669 68.4082L68.3009 69.9902L50.0392 75.0293V75.0586H49.922L49.8927 75.0684V75.0586H49.8829L31.465 69.9805L30.3517 55.8594H39.2482L39.8829 63.0078L49.8829 65.7129H49.922L59.8829 63.0176L60.9962 51.4355H49.8927V51.4258H29.8829L27.6564 26.6699L27.4904 24.2969H72.4415L72.2853 26.6699V26.6699Z" fill="black" fill-opacity="0.63"/>
</svg>
