<svg width="100" height="100" viewBox="0 0 100 100" fill="none" xmlns="http://www.w3.org/2000/svg">
<path fill-rule="evenodd" clip-rule="evenodd" d="M4.16667 11.825C4.16667 9.79392 4.97352 7.84599 6.40974 6.40977C7.84596 4.97355 9.79388 4.1667 11.825 4.1667H88.1667C89.1732 4.16505 90.1702 4.36196 91.1006 4.74614C92.031 5.13032 92.8764 5.69424 93.5885 6.4056C94.3007 7.11696 94.8655 7.9618 95.2507 8.89174C95.6359 9.82168 95.8339 10.8185 95.8333 11.825V88.1667C95.8344 89.1735 95.637 90.1706 95.2524 91.1009C94.8677 92.0313 94.3034 92.8767 93.5917 93.5888C92.8801 94.3009 92.0349 94.8657 91.1048 95.2508C90.1746 95.636 89.1776 95.8339 88.1708 95.8334H11.825C10.8189 95.8334 9.82274 95.6351 8.89332 95.25C7.9639 94.8649 7.11946 94.3004 6.40827 93.5888C5.69707 92.8772 5.13305 92.0325 4.74843 91.1029C4.3638 90.1732 4.16612 89.1769 4.16667 88.1709V11.825ZM40.45 39.1167H52.8625V45.35C54.6542 41.7667 59.2375 38.5417 66.125 38.5417C79.3292 38.5417 82.4583 45.6792 82.4583 58.775V83.0334H69.0958V61.7584C69.0958 54.3 67.3042 50.0917 62.7542 50.0917C56.4417 50.0917 53.8167 54.6292 53.8167 61.7584V83.0334H40.45V39.1167ZM17.5333 82.4625H30.9V38.5417H17.5333V82.4584V82.4625ZM32.8125 24.2167C32.8377 25.3612 32.6341 26.4991 32.2135 27.5638C31.7929 28.6285 31.164 29.5985 30.3635 30.4168C29.563 31.2352 28.6071 31.8853 27.5519 32.3292C26.4967 32.7731 25.3635 33.0018 24.2188 33.0018C23.074 33.0018 21.9408 32.7731 20.8856 32.3292C19.8304 31.8853 18.8745 31.2352 18.074 30.4168C17.2735 29.5985 16.6446 28.6285 16.224 27.5638C15.8035 26.4991 15.5998 25.3612 15.625 24.2167C15.6745 21.9703 16.6016 19.8325 18.2079 18.2612C19.8141 16.69 21.9718 15.8101 24.2188 15.8101C26.4657 15.8101 28.6234 16.69 30.2296 18.2612C31.8359 19.8325 32.763 21.9703 32.8125 24.2167V24.2167Z" fill="black" fill-opacity="0.5"/>
</svg>
